<svg xmlns="http://www.w3.org/2000/svg" width="72" height="20" fill="none" viewBox="0 0 72 20"><path fill="#A859D0" d="M24.7539 6.9277C24.6759 6.62462 24.5818 6.32494 24.4727 6.03042 24.4233 5.89705 24.3705 5.76486 24.315 5.63377 24.1661 5.28241 23.996 4.93973 23.8056 4.60913 23.3199 3.76585 22.7788 3.07906 22.2078 2.52008 22.1554 2.46883 22.1028 2.41875 22.05 2.36963 22.0019 2.32492 21.9536 2.28103 21.9051 2.23804 21.8792 2.21499 21.8531 2.1922 21.827 2.16964 21.7717 2.12183 21.7162 2.07513 21.6605 2.02948 21.6328 2.00673 21.605 1.98421 21.5771 1.962 21.5229 1.91873 21.4685 1.87651 21.4139 1.8352 21.359 1.7936 21.3038 1.75299 21.2486 1.71334 21.1973 1.67657 21.146 1.64062 21.0945 1.60549 21.0809 1.59617 21.0672 1.58691 21.0535 1.57769 21.0038 1.54422 20.9541 1.51149 20.9042 1.4795 20.8887 1.46955 20.8732 1.45969 20.8577 1.44989 20.8307 1.43285 20.8038 1.41606 20.7768 1.39946 20.7383 1.37577 20.6998 1.35249 20.6612 1.32965 20.5837 1.28372 20.506 1.23936 20.4282 1.19675 20.385 1.17302 20.3417 1.14982 20.2983 1.12709 20.2334 1.09302 20.1684 1.06006 20.1034 1.02818 20.06 1.00693 20.0167.986144 19.9734.965849 19.9084.935396 19.8435.905993 19.7785.87762 19.7353.858711 19.692.840234 19.6488.822206 19.6056.804196 19.5624.786599 19.5193.769452 19.4605.746064 19.4017.723558 19.3431.701763 19.3157.691587 19.2883.681523 19.261.671685 19.1751.640764 19.0895.611492 19.0042.583794 17.9378.237495 16.9211.135455 16.0992.113998H16.0979C14.9919.110549 12.3994.109331 10.751.109238 9.03022.109369 5.47712.110981 3.37796.112105L0 3.94967C4.09244 3.93777 14.3521 3.95001 17.5661 3.95998H17.5675C19.5714 4.01232 22.7339 4.54381 24.9494 7.927 24.8991 7.59091 24.8346 7.25732 24.7539 6.9277ZM21.9722 15.4979H21.9708C19.4729 15.4902 11.9942 15.4937 7.79372 15.4959L3.82898 20C5.89144 20 11.7089 19.9998 13.2822 19.9998H13.4635C14.0215 19.9998 14.5308 19.9998 14.9707 19.9999 15.4946 19.9924 15.9318 19.9926 16.3882 19.9949 17.6706 20.0012 19.3046 19.7355 20.8313 18.7951 20.8462 18.7859 20.8612 18.7767 20.8761 18.7673 21.1187 18.6155 21.3585 18.4466 21.5936 18.2588 21.6219 18.2363 21.65 18.2134 21.6781 18.1903 21.7018 18.1709 21.7254 18.1513 21.749 18.1314 21.7996 18.0888 21.8501 18.0452 21.9002 18.0007 21.975 17.9344 22.0492 17.866 22.1227 17.7955 22.5466 17.3893 22.9492 16.9131 23.3185 16.3564 23.4685 16.1356 23.6095 15.9096 23.7414 15.6791 23.0977 15.5579 22.4954 15.5116 21.9722 15.4979ZM19.0356 7.80587H19.0342C16.6689 7.79851 9.52545 7.78996 5.45988 7.79068L2.06741 11.6447C6.0583 11.6278 17.0417 11.6411 20.5024 11.6519H20.5038C21.6894 11.6828 23.2806 11.8815 24.8412 12.7393 24.8594 12.645 24.8764 12.5507 24.8922 12.4563 24.9236 12.2685 24.9506 12.08 24.9742 11.8894 24.9975 11.6847 25.0177 11.4789 25.0345 11.2723 25.0644 10.903 25.0832 10.5311 25.089 10.1585 23.0597 8.20768 20.6648 7.84841 19.0356 7.80587Z"/><path fill="#040404" fill-rule="evenodd" d="M30.5904 0H45.0976C45.1351 0 48.8837 0.0303777 51.5131 2.65296C53.2346 4.36995 54.1051 6.79693 54.1007 9.86654C54.1007 13.2455 53.1673 15.8474 51.3266 17.5999C48.9702 19.8432 45.8311 19.9611 45.2013 19.9611C45.1379 19.9611 45.0999 19.9599 45.0907 19.9596L45.0888 19.9596H30.6472C30.493 19.9596 30.3628 19.8298 30.3628 19.6763V8.13822C30.3628 7.96637 30.5031 7.82655 30.6757 7.82655H33.826C33.9985 7.82655 34.1391 7.96637 34.1391 8.13822V15.9436C34.1391 16.131 34.2922 16.2836 34.4803 16.2836H44.0308C45.9166 16.2735 47.5205 15.6426 48.6685 14.459C49.7458 13.3486 50.3566 11.7903 50.3886 10.0713C50.4213 8.23686 49.7793 6.56882 48.5803 5.37442C47.3906 4.18898 45.7714 3.57856 43.9035 3.61223H30.5904C30.4649 3.61223 30.3628 3.51057 30.3628 3.38567V0.226662C30.3628 0.101665 30.4649 0 30.5904 0ZM67.0177 7.29429C68.5575 7.51171 69.8353 8.22535 70.715 9.35963C71.5557 10.4434 72 11.8532 72 13.4363V13.4929C72 15.2828 71.2918 16.9293 70.0063 18.1289C68.7411 19.3095 67.0321 19.9596 65.1942 19.9596H54.8614C54.6929 19.9596 54.5556 19.823 54.5556 19.6551V16.6023C54.5556 16.4344 54.6929 16.2978 54.8614 16.2978H64.7463C65.7916 16.3102 66.6552 16.0169 67.2353 15.4466C67.7468 14.9434 68.0173 14.2581 68.0173 13.4646C68.0173 12.6695 67.7472 11.9836 67.2362 11.4811C66.657 10.9117 65.7986 10.621 64.7466 10.6315H59.7469C59.6942 10.6315 59.6477 10.6032 59.6229 10.5557C59.5977 10.5076 59.6012 10.4501 59.6323 10.4058L65.0527 3.63275C65.0597 3.62433 65.061 3.61599 65.057 3.60758C65.0531 3.59933 65.0436 3.59101 65.0307 3.59101H55.7859C55.6134 3.59101 55.4728 3.45119 55.4728 3.27935V0.318726C55.4728 0.143955 55.6105 0.00705873 55.7859 0.00705873L71.4665 0.021245C71.5419 0.021245 71.6082 0.0614988 71.6439 0.129038C71.6804 0.198302 71.6755 0.281395 71.6308 0.345899L67.0177 7.29429Z" clip-rule="evenodd"/></svg>